<svg xmlns="http://www.w3.org/2000/svg" viewBox="0 0 64 64">
  <rect width="64" height="64" rx="14" fill="#0d1117"/>
  <path d="M32 12c-11 0-20 9-20 20 0 8.8 5.7 16.3 13.5 19 .9.2 1.2-.4 1.2-.9v-3.4c-5.5 1.2-6.7-2.4-6.7-2.4-.8-2.1-2-2.7-2-2.7-1.7-1.1.1-1.1.1-1.1 1.9.1 2.9 1.9 2.9 1.9 1.7 2.8 4.4 2 5.5 1.5.2-1.2.7-2 1.3-2.5-4.4-.5-9.1-2.2-9.1-9.9 0-2.2.8-4 2-5.4-.2-.5-.9-2.6.2-5.5 0 0 1.6-.5 5.4 2.1 1.6-.4 3.2-.6 4.9-.6s3.4.2 4.9.6c3.8-2.6 5.4-2.1 5.4-2.1 1.1 2.9.4 5 .2 5.5 1.3 1.4 2 3.2 2 5.4 0 7.7-4.7 9.4-9.2 9.9.7.6 1.4 1.8 1.4 3.7v5.4c0 .5.3 1.1 1.2.9C46.3 48.3 52 40.8 52 32c0-11-9-20-20-20z" fill="#fff"/>
</svg>
