<svg xmlns="http://www.w3.org/2000/svg" viewBox="0 0 64 64">
  <rect width="64" height="64" rx="14" fill="#ffffff"/>
  <path d="M59 33.2c0-1.9-.2-3.7-.6-5.5H32v10.4h15.1c-.6 3.4-2.5 6.3-5.3 8.2v6.8h8.6C55.4 48.4 59 41.5 59 33.2z" fill="#4285F4"/>
  <path d="M32 60c7.6 0 14-2.5 18.7-6.9l-8.6-6.8c-2.4 1.6-5.5 2.5-10.1 2.5-7.7 0-14.2-5.2-16.5-12.1H6.6v7.1C11.2 53.7 20.8 60 32 60z" fill="#34A853"/>
  <path d="M15.5 36.7c-.6-1.7-1-3.6-1-5.5s.4-3.8 1-5.5v-7.1H6.6C4.9 22 4 26.5 4 31.2s.9 9.2 2.6 12.6l8.9-7.1z" fill="#FBBC04"/>
  <path d="M32 13.6c4.1 0 7.8 1.4 10.7 4.2l8-8C46 5.3 39.6 2.8 32 2.8 20.8 2.8 11.2 9.1 6.6 18.6l8.9 7.1C17.8 18.8 24.3 13.6 32 13.6z" fill="#EA4335"/>
</svg>
